<svg width="558" height="115" viewBox="0 0 558 115" fill="none" xmlns="http://www.w3.org/2000/svg">
<path d="M0 43.9231H44.2308V52.7692H35.3846V97H26.5385V52.7692H17.6923V97H8.84615V52.7692H0V43.9231ZM97.3509 88.1538H88.5047V52.7692H97.3509V88.1538ZM61.9663 97V114.692H53.1201V43.9231H61.9663V52.7692H70.8124V61.6154H61.9663V88.1538H88.5047V97H61.9663ZM88.5047 52.7692H70.8124V43.9231H88.5047V52.7692ZM150.471 88.1538H141.625V52.7692H150.471V88.1538ZM141.625 52.7692H115.086V43.9231H141.625V52.7692ZM115.086 97V88.1538H141.625V97H115.086ZM106.24 88.1538V52.7692H115.086V88.1538H106.24ZM309.831 88.1538V52.7692H292.139V70.4615H283.293V43.9231H318.678V105.846H309.831V97H274.447V105.846H265.601V88.1538H274.447V70.4615H283.293V88.1538H309.831Z" fill="#6BC8F4"/>
<path d="M203.591 88.1538V97H194.745V88.1538H203.591ZM159.36 97V88.1538H168.207V97H159.36ZM185.899 52.7692H194.745V61.6154H185.899V52.7692ZM168.207 88.1538V79.3077H177.053V88.1538H168.207ZM203.591 52.7692H194.745V43.9231H203.591V52.7692ZM168.207 43.9231V52.7692H159.36V43.9231H168.207ZM177.053 79.3077V61.6154H185.899V79.3077H177.053ZM185.899 88.1538V79.3077H194.745V88.1538H185.899ZM177.053 61.6154H168.207V52.7692H177.053V61.6154ZM256.711 88.1538H247.865V52.7692H256.711V88.1538ZM247.865 52.7692H221.327V43.9231H247.865V52.7692ZM221.327 97V88.1538H247.865V97H221.327ZM212.48 88.1538V52.7692H221.327V88.1538H212.48ZM327.48 97H371.711V105.846H327.48V97ZM424.831 88.1538H415.985V52.7692H424.831V88.1538ZM389.447 97V114.692H380.601V43.9231H389.447V52.7692H398.293V61.6154H389.447V88.1538H415.985V97H389.447ZM415.985 52.7692H398.293V43.9231H415.985V52.7692ZM433.721 43.9231H477.951V52.7692H460.259V97H451.413V52.7692H433.721V43.9231ZM522.225 88.1538V105.846H513.379V88.1538H495.687V79.3077H513.379V52.7692H495.687V43.9231H513.379V26.2308H522.225V43.9231H539.918V52.7692H522.225V79.3077H539.918V88.1538H522.225ZM539.918 52.7692H548.764V79.3077H539.918V52.7692ZM486.841 79.3077V52.7692H495.687V79.3077H486.841Z" fill="white"/>
<rect x="292" y="52" width="18" height="37" fill="white"/>
<rect x="283" y="70" width="9" height="19" fill="white"/>
<path d="M282.527 69.9492C282.553 69.9492 282.579 69.9482 282.605 69.9492C282.623 69.9499 282.642 69.9609 282.662 69.9609C282.706 69.9609 282.749 69.9609 282.793 69.9609" stroke="#1F2025" stroke-linecap="square"/>
<rect x="300" y="71" width="7" height="6" fill="#6BC8F4"/>
</svg>
