<svg width="156" height="32" viewBox="0 0 156 32" fill="none" xmlns="http://www.w3.org/2000/svg">
<path d="M0 12.2308H12.3077V14.6923H9.84615V27H7.38462V14.6923H4.92308V27H2.46154V14.6923H0V12.2308ZM27.0889 24.5385H24.6274V14.6923H27.0889V24.5385ZM17.2428 27V31.9231H14.7812V12.2308H17.2428V14.6923H19.7043V17.1538H17.2428V24.5385H24.6274V27H17.2428ZM24.6274 14.6923H19.7043V12.2308H24.6274V14.6923ZM41.8702 24.5385H39.4087V14.6923H41.8702V24.5385ZM39.4087 14.6923H32.024V12.2308H39.4087V14.6923ZM32.024 27V24.5385H39.4087V27H32.024ZM29.5625 24.5385V14.6923H32.024V24.5385H29.5625ZM86.2139 24.5385V14.6923H81.2909V19.6154H78.8293V12.2308H88.6755V29.4615H86.2139V27H76.3678V29.4615H73.9062V24.5385H76.3678V19.6154H78.8293V24.5385H86.2139Z" fill="#6BC8F4"/>
<path d="M56.6514 24.5385V27H54.1899V24.5385H56.6514ZM44.3438 27V24.5385H46.8053V27H44.3438ZM51.7284 14.6923H54.1899V17.1538H51.7284V14.6923ZM46.8053 24.5385V22.0769H49.2668V24.5385H46.8053ZM56.6514 14.6923H54.1899V12.2308H56.6514V14.6923ZM46.8053 12.2308V14.6923H44.3438V12.2308H46.8053ZM49.2668 22.0769V17.1538H51.7284V22.0769H49.2668ZM51.7284 24.5385V22.0769H54.1899V24.5385H51.7284ZM49.2668 17.1538H46.8053V14.6923H49.2668V17.1538ZM71.4327 24.5385H68.9712V14.6923H71.4327V24.5385ZM68.9712 14.6923H61.5865V12.2308H68.9712V14.6923ZM61.5865 27V24.5385H68.9712V27H61.5865ZM59.125 24.5385V14.6923H61.5865V24.5385H59.125ZM91.125 27H103.433V29.4615H91.125V27ZM118.214 24.5385H115.752V14.6923H118.214V24.5385ZM108.368 27V31.9231H105.906V12.2308H108.368V14.6923H110.829V17.1538H108.368V24.5385H115.752V27H108.368ZM115.752 14.6923H110.829V12.2308H115.752V14.6923ZM120.688 12.2308H132.995V14.6923H128.072V27H125.611V14.6923H120.688V12.2308ZM145.315 24.5385V29.4615H142.853V24.5385H137.93V22.0769H142.853V14.6923H137.93V12.2308H142.853V7.30769H145.315V12.2308H150.238V14.6923H145.315V22.0769H150.238V24.5385H145.315ZM150.238 14.6923H152.7V22.0769H150.238V14.6923ZM135.469 22.0769V14.6923H137.93V22.0769H135.469Z" fill="white"/>
<rect x="81.1997" y="14" width="5.70021" height="10.6" fill="white"/>
<rect x="78.3496" y="19.1566" width="2.85011" height="5.44324" fill="white"/>
<path d="M78.2 19.1422C78.2081 19.1422 78.2163 19.1419 78.2244 19.1422C78.2304 19.1425 78.2362 19.146 78.2426 19.146C78.2565 19.146 78.2703 19.146 78.2841 19.146" stroke="#1F2025" stroke-linecap="square"/>
<rect x="83.7332" y="19.4432" width="2.21675" height="1.71892" fill="#6BC8F4"/>
</svg>
