<svg width="544" height="86" viewBox="0 0 544 86" fill="none" xmlns="http://www.w3.org/2000/svg">
<mask id="path-1-inside-1_264_6" fill="white">
<path d="M0 36.5596C0 17.2296 15.67 1.55957 35 1.55957H471V85.5596H0V36.5596Z"/>
</mask>
<path d="M0 36.5596C0 17.2296 15.67 1.55957 35 1.55957H471V85.5596H0V36.5596Z" fill="#747A9B"/>
<path d="M-3 36.5596C-3 15.5728 14.0132 -1.44043 35 -1.44043H471V4.55957H35C17.3269 4.55957 3 18.8865 3 36.5596H-3ZM471 85.5596H0H471ZM-3 85.5596V36.5596C-3 15.5728 14.0132 -1.44043 35 -1.44043V4.55957C17.3269 4.55957 3 18.8865 3 36.5596V85.5596H-3ZM471 1.55957V85.5596V1.55957Z" fill="white" mask="url(#path-1-inside-1_264_6)"/>
<mask id="path-3-inside-2_264_6" fill="white">
<path d="M470.008 1.55957L543.476 44.0002L522.763 79.8573L449.294 37.4167L470.008 1.55957Z"/>
</mask>
<path d="M470.008 1.55957L543.476 44.0002L522.763 79.8573L449.294 37.4167L470.008 1.55957Z" fill="#747A9B"/>
<path d="M468.507 4.15728L541.976 46.5979L544.977 41.4024L471.509 -1.03814L468.507 4.15728Z" fill="white" mask="url(#path-3-inside-2_264_6)"/>
<path d="M469.999 1.06157L470.999 1.56147L478 5.55979" stroke="#121629"/>
<line x1="468" y1="4.05957" x2="470" y2="4.05957" stroke="white"/>
</svg>
