<svg width="544" height="86" viewBox="0 0 544 86" fill="none" xmlns="http://www.w3.org/2000/svg">
<mask id="path-1-inside-1_264_13" fill="white">
<path d="M0 36.56C0 17.23 15.67 1.56 35 1.56H471V85.56H0V36.56Z"/>
</mask>
<path d="M0 36.56C0 17.23 15.67 1.56 35 1.56H471V85.56H0V36.56Z" fill="#747A9B"/>
<path d="M-3 36.56C-3 15.5732 14.0132 -1.44 35 -1.44H471V4.56H35C17.3269 4.56 3 18.8869 3 36.56H-3ZM471 85.56H0H471ZM-3 85.56V36.56C-3 15.5732 14.0132 -1.44 35 -1.44V4.56C17.3269 4.56 3 18.8869 3 36.56V85.56H-3ZM471 1.56V85.56V1.56Z" fill="white" mask="url(#path-1-inside-1_264_13)"/>
<mask id="path-3-inside-2_264_13" fill="white">
<path d="M470.008 1.56L543.476 44.0006L522.763 79.8577L449.294 37.4171L470.008 1.56Z"/>
</mask>
<path d="M470.008 1.56L543.476 44.0006L522.763 79.8577L449.294 37.4171L470.008 1.56Z" fill="#747A9B"/>
<path d="M468.507 4.15771L541.976 46.5983L544.977 41.4029L471.509 -1.03772L468.507 4.15771Z" fill="white" mask="url(#path-3-inside-2_264_13)"/>
<path d="M469.999 1.062L470.999 1.5619L478 5.56021" stroke="#121629"/>
<line x1="468" y1="4.06" x2="470" y2="4.06" stroke="white"/>
</svg>
